<svg viewBox="0 0 512 512" xmlns="http://www.w3.org/2000/svg"><path d="m189 508c.7-28 3-55 3-82-47-5-91-36-106-81-8-22-9-47-7-69-26-7-54-11-80-18-1-10 11-6 17-9 24-5 50-9 73-15 29-77 100-136 181-149 11 2 10-11 15-18 10-22 20-45 31-67 11-3 4 11 5 17-.7 22-3 45-3 67 42 5 83 30 101 69 12 25 15 54 12 81 26 6 54 11 80 18 1 10-11 6-17 9-24 5-49 9-72 15-14 34-37 68-66 93-32 28-70 48-113 56-6 .3-12 1-13 7-12 26-24 53-36 79-2-1-8 2-6-2zm10-135c1-13 4-26 5-39-19-8-33-27-36-48-13-1-26-4-39-5-3 37 19 75 54 88 5 1 13 7 16 3zm58 .07c48-12 91-47 111-92-14 2-28 3-42 5-14 22-36 39-60 48-5 13-10 27-15 40 2 .2 3-.7 5-1zm-2-93c19-3 36-27 24-45-15-16-41-3-48 15-7 13 1 31 17 31 2 .2 5-.1 7-.7zm-105-53c11-1 23-2 34-4 14-22 36-39 60-48 6-13 10-26 15-40-50 10-94 47-116 92 1 2 5-.3 7-.03zm232-.07c2-38-21-76-57-88-6-3-15-7-13 5-1 11-3 22-4 32 20 8 32 28 36 48 13 1 25 5 39 4z" fill="#d4b300"/></svg>
